<?xml version="1.0" standalone="no"?>
<!DOCTYPE svg PUBLIC "-//W3C//DTD SVG 20010904//EN"
 "http://www.w3.org/TR/2001/REC-SVG-20010904/DTD/svg10.dtd">
<svg version="1.0" xmlns="http://www.w3.org/2000/svg"
 width="460.000000pt" height="460.000000pt" viewBox="0 0 460.000000 460.000000"
 preserveAspectRatio="xMidYMid meet">
<metadata>
Created by potrace 1.11, written by Peter Selinger 2001-2013
</metadata>
<g transform="translate(0.000000,460.000000) scale(0.100000,-0.100000)"
fill="#000000" stroke="none">
<path d="M949 4596 c-2 -2 -47 -6 -99 -10 -231 -14 -420 -112 -547 -281 -57
-76 -90 -141 -103 -202 -5 -27 -13 -61 -17 -78 -6 -25 -12 -1106 -16 -2775 -1
-552 11 -731 53 -827 89 -201 304 -375 490 -398 30 -3 71 -9 90 -11 42 -6
1607 -5 1700 1 242 16 528 72 722 141 485 173 942 654 1107 1164 112 348 153
1003 91 1471 -69 532 -251 933 -564 1245 -324 324 -634 470 -1146 540 -115 15
-338 20 -1021 22 -405 1 -738 0 -740 -2z m1256 -1178 c213 -33 401 -128 483
-242 189 -263 261 -856 166 -1361 -36 -191 -122 -378 -215 -464 -82 -76 -210
-128 -369 -151 -86 -13 -459 -24 -507 -15 -39 7 -40 12 -47 205 -20 511 -24
954 -13 1400 12 476 19 623 30 632 5 3 316 13 357 10 25 -1 77 -7 115 -14z"/>
</g>
</svg>
